<?xml version="1.0" encoding="UTF-8"?>
<svg xmlns="http://www.w3.org/2000/svg" xmlns:xlink="http://www.w3.org/1999/xlink" viewBox="0 0 50 50" width="50px" height="50px">
<g id="surface55007246">
<path style=" stroke:none;fill-rule:nonzero;fill:rgb(100%,100%,100%);fill-opacity:1;" d="M 30.140625 2 C 26.871094 2 24.046875 2.996094 22.0625 4.964844 C 20.078125 6.9375 19 9.824219 19 13.367188 L 19 18 L 13 18 C 12.449219 18 12 18.449219 12 19 L 12 27 C 12 27.550781 12.449219 28 13 28 L 19 28 L 19 47 C 19 47.550781 19.449219 48 20 48 L 28 48 C 28.550781 48 29 47.550781 29 47 L 29 28 L 36 28 C 36.503906 28 36.929688 27.625 36.992188 27.125 L 37.992188 19.125 C 38.027344 18.839844 37.941406 18.554688 37.75 18.339844 C 37.558594 18.125 37.285156 18 37 18 L 29 18 L 29 14 C 29 12.882812 29.882812 12 31 12 L 37 12 C 37.550781 12 38 11.550781 38 11 L 38 3.347656 C 38 2.84375 37.628906 2.421875 37.128906 2.355469 C 36.246094 2.238281 33.058594 2 30.140625 2 Z M 30.140625 4 C 32.578125 4 34.933594 4.195312 36 4.292969 L 36 10 L 31 10 C 28.800781 10 27 11.800781 27 14 L 27 19 C 27 19.550781 27.449219 20 28 20 L 35.867188 20 L 35.117188 26 L 28 26 C 27.449219 26 27 26.449219 27 27 L 27 46 L 21 46 L 21 27 C 21 26.449219 20.550781 26 20 26 L 14 26 L 14 20 L 20 20 C 20.550781 20 21 19.550781 21 19 L 21 13.367188 C 21 10.222656 21.921875 7.925781 23.472656 6.386719 C 25.023438 4.84375 27.269531 4 30.140625 4 Z M 30.140625 4 "/>
</g>
</svg>
